<svg xmlns="http://www.w3.org/2000/svg" xmlns:xlink="http://www.w3.org/1999/xlink" width="56" zoomAndPan="magnify" viewBox="0 0 42 42" height="56" preserveAspectRatio="xMidYMid meet" version="1.0"><defs><g/><clipPath id="bd1e754546"><path d="M 0.488281 0 L 41 0 L 41 40.289062 L 0.488281 40.289062 Z M 0.488281 0 " clip-rule="nonzero"/></clipPath></defs><g fill="#ffffff" fill-opacity="1"><g transform="translate(27.120136, 33.03114)"><g><path d="M 0.9375 0.0585938 C 1.117188 0.0585938 1.273438 -0.0898438 1.273438 -0.273438 C 1.273438 -0.453125 1.117188 -0.605469 0.9375 -0.605469 C 0.761719 -0.605469 0.605469 -0.453125 0.605469 -0.273438 C 0.605469 -0.0898438 0.761719 0.0585938 0.9375 0.0585938 Z M 0.9375 0.0585938 "/></g></g></g><g fill="#ffffff" fill-opacity="1"><g transform="translate(29.275492, 33.03114)"><g><path d="M 0.9375 0.0585938 C 1.117188 0.0585938 1.273438 -0.0898438 1.273438 -0.273438 C 1.273438 -0.453125 1.117188 -0.605469 0.9375 -0.605469 C 0.761719 -0.605469 0.605469 -0.453125 0.605469 -0.273438 C 0.605469 -0.0898438 0.761719 0.0585938 0.9375 0.0585938 Z M 0.9375 0.0585938 "/></g></g></g><g clip-path="url(#bd1e754546)"><path fill="#ff3131" d="M 25.070312 40.332031 C 25.695312 36.570312 24.9375 33.035156 23.855469 29.570312 C 23.121094 27.226562 22.105469 24.976562 21.207031 22.679688 C 21.109375 22.433594 20.945312 22.203125 20.769531 21.890625 C 20.828125 23.277344 20.945312 24.546875 20.917969 25.816406 C 20.835938 29.152344 20.433594 32.433594 19.144531 35.535156 C 18.65625 36.726562 18.015625 37.824219 17.074219 38.714844 C 15.804688 39.910156 14.121094 40.363281 12.691406 39.867188 C 12.691406 39.003906 12.742188 38.113281 12.683594 37.230469 C 12.328125 31.980469 10.738281 27.179688 7.683594 22.914062 C 7.238281 22.292969 6.675781 21.722656 6.074219 21.261719 C 4.796875 20.265625 3.757812 20.609375 3.351562 22.195312 C 3.121094 23.085938 3.003906 24.035156 2.996094 24.949219 C 2.972656 27.96875 3.484375 30.898438 4.65625 33.730469 C 4.566406 33.613281 4.472656 33.5 4.390625 33.375 C 4.308594 33.25 4.226562 33.121094 4.152344 32.988281 C 1.933594 28.828125 0.636719 24.390625 0.519531 19.644531 C 0.488281 18.375 0.703125 17.027344 1.089844 15.816406 C 1.925781 13.199219 4.390625 12.21875 6.84375 13.367188 C 8.210938 14.007812 9.257812 15.050781 10.175781 16.230469 C 11.703125 18.183594 12.75 20.402344 13.507812 22.773438 C 13.574219 22.96875 13.640625 23.167969 13.699219 23.367188 C 13.757812 23.359375 13.804688 23.351562 13.863281 23.339844 C 13.765625 22.277344 13.699219 21.210938 13.566406 20.148438 C 13.300781 17.902344 12.847656 15.699219 11.910156 13.628906 C 11.59375 12.945312 11.230469 12.277344 10.792969 11.664062 C 9.203125 9.429688 7.054688 8.777344 4.507812 9.695312 C 4.191406 9.808594 3.878906 9.925781 3.417969 10.097656 C 5.71875 6.90625 8.34375 4.636719 12.335938 4.84375 C 14.203125 4.933594 15.894531 5.632812 17.460938 6.632812 C 20.804688 8.753906 23.171875 11.78125 25.085938 15.222656 C 25.730469 16.371094 26.296875 17.558594 26.902344 18.730469 C 27 18.917969 27.089844 19.101562 27.179688 19.289062 C 27.253906 19.28125 27.328125 19.265625 27.402344 19.257812 C 27.328125 18.199219 27.363281 17.128906 27.171875 16.097656 C 26.464844 12.21875 24.855469 8.769531 22.238281 5.839844 C 20.570312 3.96875 18.601562 2.582031 16.117188 2.109375 C 15.429688 1.980469 14.730469 1.960938 14.085938 1.894531 C 18.542969 0.0078125 26.222656 0.015625 32.4375 5.15625 C 39.3125 10.839844 41.429688 19.585938 39.394531 26.203125 C 40.101562 18.398438 36.546875 12.835938 30.605469 8.449219 C 30.515625 8.605469 30.472656 8.652344 30.480469 8.664062 C 32.296875 11.476562 33.066406 14.675781 33.683594 17.914062 C 34.328125 21.285156 34.617188 24.703125 34.320312 28.144531 C 34.070312 31.046875 33.484375 33.84375 31.894531 36.328125 C 30.449219 38.574219 28.394531 39.878906 25.8125 40.332031 C 25.582031 40.363281 25.351562 40.332031 25.070312 40.332031 Z M 25.070312 40.332031 " fill-opacity="1" fill-rule="nonzero"/></g></svg>