<svg xmlns="http://www.w3.org/2000/svg" xmlns:xlink="http://www.w3.org/1999/xlink" width="40" zoomAndPan="magnify" viewBox="0 0 30 17.25" height="23" preserveAspectRatio="xMidYMid meet" version="1.0"><defs><clipPath id="e45ae4b7cc"><path d="M 1 1 L 14 1 L 14 16 L 1 16 Z M 1 1 " clip-rule="nonzero"/></clipPath><clipPath id="9409034821"><path d="M 0.625 3.988281 L 6.273438 -0.00390625 L 15.105469 12.484375 L 9.457031 16.476562 Z M 0.625 3.988281 " clip-rule="nonzero"/></clipPath><clipPath id="85ab328da0"><path d="M 3.449219 1.992188 C 4.199219 1.464844 5.128906 1.253906 6.03125 1.410156 C 6.9375 1.5625 7.742188 2.070312 8.269531 2.820312 L 13.097656 9.648438 C 13.628906 10.398438 13.839844 11.324219 13.683594 12.230469 C 13.527344 13.132812 13.019531 13.941406 12.269531 14.46875 C 11.523438 15 10.59375 15.210938 9.691406 15.054688 C 8.785156 14.898438 7.980469 14.390625 7.449219 13.640625 L 2.621094 6.8125 C 2.09375 6.066406 1.882812 5.136719 2.039062 4.230469 C 2.191406 3.328125 2.699219 2.523438 3.449219 1.992188 Z M 3.449219 1.992188 " clip-rule="nonzero"/></clipPath><clipPath id="0d527b5594"><path d="M 12 1 L 25 1 L 25 16 L 12 16 Z M 12 1 " clip-rule="nonzero"/></clipPath><clipPath id="b5a0d4efec"><path d="M 10.914062 3.988281 L 16.5625 -0.00390625 L 25.390625 12.484375 L 19.742188 16.476562 Z M 10.914062 3.988281 " clip-rule="nonzero"/></clipPath><clipPath id="9a13ac2479"><path d="M 13.738281 1.992188 C 14.484375 1.464844 15.414062 1.253906 16.320312 1.410156 C 17.222656 1.5625 18.027344 2.070312 18.558594 2.820312 L 23.386719 9.648438 C 23.914062 10.398438 24.125 11.324219 23.96875 12.230469 C 23.816406 13.132812 23.308594 13.941406 22.558594 14.46875 C 21.808594 15 20.878906 15.210938 19.976562 15.054688 C 19.074219 14.898438 18.265625 14.390625 17.738281 13.640625 L 12.910156 6.8125 C 12.378906 6.066406 12.167969 5.136719 12.324219 4.230469 C 12.480469 3.328125 12.988281 2.523438 13.738281 1.992188 Z M 13.738281 1.992188 " clip-rule="nonzero"/></clipPath><clipPath id="806754e653"><path d="M 22.339844 1.230469 L 29.035156 1.230469 L 29.035156 7.929688 L 22.339844 7.929688 Z M 22.339844 1.230469 " clip-rule="nonzero"/></clipPath><clipPath id="65fafa7c53"><path d="M 25.6875 1.230469 C 23.839844 1.230469 22.339844 2.730469 22.339844 4.582031 C 22.339844 6.429688 23.839844 7.929688 25.6875 7.929688 C 27.539062 7.929688 29.035156 6.429688 29.035156 4.582031 C 29.035156 2.730469 27.539062 1.230469 25.6875 1.230469 Z M 25.6875 1.230469 " clip-rule="nonzero"/></clipPath></defs><g clip-path="url(#e45ae4b7cc)"><g clip-path="url(#9409034821)"><g clip-path="url(#85ab328da0)"><path fill="#781bff" d="M 0.625 3.988281 L 6.273438 -0.00390625 L 15.089844 12.460938 L 9.441406 16.457031 Z M 0.625 3.988281 " fill-opacity="1" fill-rule="nonzero"/></g></g></g><g clip-path="url(#0d527b5594)"><g clip-path="url(#b5a0d4efec)"><g clip-path="url(#9a13ac2479)"><path fill="#781bff" d="M 10.914062 3.988281 L 16.5625 -0.00390625 L 25.375 12.460938 L 19.726562 16.457031 Z M 10.914062 3.988281 " fill-opacity="1" fill-rule="nonzero"/></g></g></g><g clip-path="url(#806754e653)"><g clip-path="url(#65fafa7c53)"><path fill="#781bff" d="M 22.339844 1.230469 L 29.035156 1.230469 L 29.035156 7.929688 L 22.339844 7.929688 Z M 22.339844 1.230469 " fill-opacity="1" fill-rule="nonzero"/></g></g></svg>