<svg xmlns="http://www.w3.org/2000/svg" xmlns:xlink="http://www.w3.org/1999/xlink" width="248" zoomAndPan="magnify" viewBox="0 0 186 104.249996" height="139" preserveAspectRatio="xMidYMid meet" version="1.0"><defs><clipPath id="84884f0200"><path d="M 37 7 L 117 7 L 117 96 L 37 96 Z M 37 7 " clip-rule="nonzero"/></clipPath><clipPath id="c2068045d4"><path d="M 64.730469 102.773438 L 30.625 76.304688 L 89.246094 0.769531 L 123.351562 27.234375 Z M 64.730469 102.773438 " clip-rule="nonzero"/></clipPath><clipPath id="f492bc7b83"><path d="M 51.199219 92.273438 L 44.15625 86.804688 C 36.683594 81.003906 35.324219 70.246094 41.125 62.773438 L 78.6875 14.375 C 84.488281 6.902344 95.246094 5.542969 102.71875 11.34375 L 109.761719 16.808594 C 117.234375 22.609375 118.59375 33.367188 112.792969 40.839844 L 75.230469 89.242188 C 69.429688 96.714844 58.671875 98.070312 51.199219 92.273438 Z M 51.199219 92.273438 " clip-rule="nonzero"/></clipPath><clipPath id="37f678bb67"><path d="M 100 7 L 179 7 L 179 96 L 100 96 Z M 100 7 " clip-rule="nonzero"/></clipPath><clipPath id="1fdbb0b8b5"><path d="M 127.425781 101.917969 L 93.320312 75.449219 L 151.320312 0.714844 L 185.425781 27.179688 Z M 127.425781 101.917969 " clip-rule="nonzero"/></clipPath><clipPath id="252973f235"><path d="M 113.894531 91.417969 L 106.851562 85.949219 C 99.378906 80.152344 98.019531 69.394531 103.820312 61.921875 L 140.722656 14.371094 C 146.519531 6.898438 157.28125 5.542969 164.753906 11.339844 L 171.796875 16.808594 C 179.269531 22.605469 180.625 33.367188 174.828125 40.839844 L 137.925781 88.386719 C 132.125 95.859375 121.367188 97.21875 113.894531 91.417969 Z M 113.894531 91.417969 " clip-rule="nonzero"/></clipPath><clipPath id="0e01a2a804"><path d="M 7 6 L 85 6 L 85 97 L 7 97 Z M 7 6 " clip-rule="nonzero"/></clipPath><clipPath id="4f950fe258"><path d="M 0.667969 24.917969 L 35.917969 -0.00390625 L 91.019531 77.929688 L 55.769531 102.851562 Z M 0.667969 24.917969 " clip-rule="nonzero"/></clipPath><clipPath id="60455cdef2"><path d="M 14.652344 15.03125 L 21.933594 9.882812 C 29.65625 4.421875 40.34375 6.257812 45.804688 13.980469 L 81.078125 63.871094 C 86.539062 71.59375 84.707031 82.28125 76.980469 87.742188 L 69.703125 92.890625 C 61.976562 98.351562 51.289062 96.515625 45.828125 88.792969 L 10.554688 38.902344 C 5.09375 31.179688 6.929688 20.492188 14.652344 15.03125 Z M 14.652344 15.03125 " clip-rule="nonzero"/></clipPath><clipPath id="2a914aeba6"><path d="M 71 6 L 149 6 L 149 97 L 71 97 Z M 71 6 " clip-rule="nonzero"/></clipPath><clipPath id="cc523d5bf4"><path d="M 64.863281 24.917969 L 100.113281 -0.00390625 L 155.214844 77.929688 L 119.964844 102.851562 Z M 64.863281 24.917969 " clip-rule="nonzero"/></clipPath><clipPath id="ca20bb6c29"><path d="M 78.847656 15.03125 L 86.128906 9.882812 C 93.851562 4.421875 104.539062 6.257812 110 13.980469 L 145.273438 63.871094 C 150.734375 71.59375 148.902344 82.28125 141.175781 87.742188 L 133.898438 92.890625 C 126.171875 98.351562 115.484375 96.515625 110.023438 88.792969 L 74.75 38.902344 C 69.289062 31.179688 71.125 20.492188 78.847656 15.03125 Z M 78.847656 15.03125 " clip-rule="nonzero"/></clipPath><clipPath id="ebe586083b"><path d="M 134.136719 9.347656 L 176.179688 9.347656 L 176.179688 51.390625 L 134.136719 51.390625 Z M 134.136719 9.347656 " clip-rule="nonzero"/></clipPath><clipPath id="f1503bc95d"><path d="M 155.160156 9.347656 C 143.550781 9.347656 134.136719 18.757812 134.136719 30.367188 C 134.136719 41.980469 143.550781 51.390625 155.160156 51.390625 C 166.769531 51.390625 176.179688 41.980469 176.179688 30.367188 C 176.179688 18.757812 166.769531 9.347656 155.160156 9.347656 Z M 155.160156 9.347656 " clip-rule="nonzero"/></clipPath></defs><g clip-path="url(#84884f0200)"><g clip-path="url(#c2068045d4)"><g clip-path="url(#f492bc7b83)"><path fill="#e8e8e8" d="M 64.730469 102.773438 L 30.625 76.304688 L 89.144531 0.902344 L 123.246094 27.371094 Z M 64.730469 102.773438 " fill-opacity="1" fill-rule="nonzero"/></g></g></g><g clip-path="url(#37f678bb67)"><g clip-path="url(#1fdbb0b8b5)"><g clip-path="url(#252973f235)"><path fill="#e8e8e8" d="M 127.425781 101.917969 L 93.320312 75.449219 L 151.21875 0.847656 L 185.324219 27.316406 Z M 127.425781 101.917969 " fill-opacity="1" fill-rule="nonzero"/></g></g></g><g clip-path="url(#0e01a2a804)"><g clip-path="url(#4f950fe258)"><g clip-path="url(#60455cdef2)"><path fill="#ffffff" d="M 0.667969 24.917969 L 35.917969 -0.00390625 L 90.921875 77.792969 L 55.671875 102.714844 Z M 0.667969 24.917969 " fill-opacity="1" fill-rule="nonzero"/></g></g></g><g clip-path="url(#2a914aeba6)"><g clip-path="url(#cc523d5bf4)"><g clip-path="url(#ca20bb6c29)"><path fill="#ffffff" d="M 64.863281 24.917969 L 100.113281 -0.00390625 L 155.117188 77.792969 L 119.867188 102.714844 Z M 64.863281 24.917969 " fill-opacity="1" fill-rule="nonzero"/></g></g></g><g clip-path="url(#ebe586083b)"><g clip-path="url(#f1503bc95d)"><path fill="#ffffff" d="M 134.136719 9.347656 L 176.179688 9.347656 L 176.179688 51.390625 L 134.136719 51.390625 Z M 134.136719 9.347656 " fill-opacity="1" fill-rule="nonzero"/></g></g></svg>