<svg xmlns="http://www.w3.org/2000/svg" xmlns:xlink="http://www.w3.org/1999/xlink" width="402" zoomAndPan="magnify" viewBox="0 0 301.5 101.249998" height="135" preserveAspectRatio="xMidYMid meet" version="1.0"><defs><g/><clipPath id="f09ebc3dc6"><path d="M 24 21 L 71 21 L 71 74 L 24 74 Z M 24 21 " clip-rule="nonzero"/></clipPath><clipPath id="44b34ca73f"><path d="M 39.878906 78.746094 L 19.109375 62.625 L 54.8125 16.621094 L 75.582031 32.742188 Z M 39.878906 78.746094 " clip-rule="nonzero"/></clipPath><clipPath id="48b7dad08c"><path d="M 29.496094 70.683594 C 26.738281 68.546875 24.949219 65.402344 24.511719 61.945312 C 24.074219 58.484375 25.03125 54.992188 27.167969 52.238281 L 46.714844 27.050781 C 48.855469 24.296875 52 22.503906 55.457031 22.070312 C 58.917969 21.632812 62.40625 22.589844 65.160156 24.726562 C 67.917969 26.863281 69.707031 30.007812 70.144531 33.46875 C 70.582031 36.925781 69.625 40.417969 67.488281 43.171875 L 47.941406 68.359375 C 45.800781 71.113281 42.65625 72.90625 39.199219 73.34375 C 35.738281 73.777344 32.25 72.820312 29.496094 70.683594 Z M 29.496094 70.683594 " clip-rule="nonzero"/></clipPath><clipPath id="0b0b601f93"><path d="M 62 21 L 109 21 L 109 73 L 62 73 Z M 62 21 " clip-rule="nonzero"/></clipPath><clipPath id="6ab4c85200"><path d="M 78.0625 78.21875 L 57.292969 62.101562 L 92.617188 16.582031 L 113.390625 32.703125 Z M 78.0625 78.21875 " clip-rule="nonzero"/></clipPath><clipPath id="f97690dc59"><path d="M 67.679688 70.160156 C 64.925781 68.023438 63.132812 64.878906 62.695312 61.417969 C 62.261719 57.960938 63.214844 54.46875 65.355469 51.714844 L 84.5 27.046875 C 86.636719 24.292969 89.78125 22.5 93.238281 22.0625 C 96.699219 21.628906 100.1875 22.582031 102.945312 24.71875 C 105.699219 26.859375 107.492188 30.003906 107.925781 33.460938 C 108.363281 36.921875 107.40625 40.410156 105.269531 43.164062 L 86.125 67.835938 C 83.988281 70.589844 80.84375 72.382812 77.382812 72.816406 C 73.925781 73.253906 70.433594 72.296875 67.679688 70.160156 Z M 67.679688 70.160156 " clip-rule="nonzero"/></clipPath><clipPath id="6c527ea9f9"><path d="M 6 21 L 51 21 L 51 74 L 6 74 Z M 6 21 " clip-rule="nonzero"/></clipPath><clipPath id="abc0be3bcc"><path d="M 0.859375 31.328125 L 22.328125 16.148438 L 55.886719 63.613281 L 34.421875 78.789062 Z M 0.859375 31.328125 " clip-rule="nonzero"/></clipPath><clipPath id="b442c200a9"><path d="M 11.59375 23.738281 C 14.441406 21.722656 17.972656 20.925781 21.40625 21.515625 C 24.84375 22.105469 27.90625 24.035156 29.917969 26.882812 L 48.265625 52.832031 C 50.277344 55.679688 51.078125 59.207031 50.488281 62.644531 C 49.898438 66.082031 47.96875 69.140625 45.121094 71.15625 C 42.273438 73.167969 38.746094 73.96875 35.308594 73.378906 C 31.871094 72.789062 28.8125 70.855469 26.796875 68.011719 L 8.449219 42.0625 C 6.4375 39.214844 5.636719 35.683594 6.226562 32.246094 C 6.816406 28.8125 8.75 25.75 11.59375 23.738281 Z M 11.59375 23.738281 " clip-rule="nonzero"/></clipPath><clipPath id="c790c5d511"><path d="M 45 21 L 90 21 L 90 74 L 45 74 Z M 45 21 " clip-rule="nonzero"/></clipPath><clipPath id="e804b8c614"><path d="M 39.957031 31.328125 L 61.425781 16.148438 L 94.984375 63.613281 L 73.519531 78.789062 Z M 39.957031 31.328125 " clip-rule="nonzero"/></clipPath><clipPath id="0f7fe899ea"><path d="M 50.691406 23.738281 C 53.539062 21.722656 57.070312 20.925781 60.503906 21.515625 C 63.941406 22.105469 67.003906 24.035156 69.015625 26.882812 L 87.363281 52.832031 C 89.375 55.679688 90.175781 59.207031 89.585938 62.644531 C 88.996094 66.082031 87.066406 69.140625 84.21875 71.15625 C 81.371094 73.167969 77.84375 73.96875 74.40625 73.378906 C 70.96875 72.789062 67.910156 70.855469 65.894531 68.011719 L 47.546875 42.0625 C 45.535156 39.214844 44.734375 35.683594 45.324219 32.246094 C 45.914062 28.8125 47.84375 25.75 50.691406 23.738281 Z M 50.691406 23.738281 " clip-rule="nonzero"/></clipPath><clipPath id="16c98cc5d8"><path d="M 82.148438 21.839844 L 107.753906 21.839844 L 107.753906 47.445312 L 82.148438 47.445312 Z M 82.148438 21.839844 " clip-rule="nonzero"/></clipPath><clipPath id="e1eb9cae0b"><path d="M 94.953125 21.839844 C 87.882812 21.839844 82.148438 27.574219 82.148438 34.644531 C 82.148438 41.714844 87.882812 47.445312 94.953125 47.445312 C 102.023438 47.445312 107.753906 41.714844 107.753906 34.644531 C 107.753906 27.574219 102.023438 21.839844 94.953125 21.839844 Z M 94.953125 21.839844 " clip-rule="nonzero"/></clipPath><clipPath id="a1068c3831"><path d="M 146 13 L 250 13 L 250 90 L 146 90 Z M 146 13 " clip-rule="nonzero"/></clipPath><clipPath id="d82097845c"><path d="M 141.761719 24.179688 L 241.609375 -0.0195312 L 258.96875 71.609375 L 159.121094 95.808594 Z M 141.761719 24.179688 " clip-rule="nonzero"/></clipPath><clipPath id="d4100033cb"><path d="M 141.761719 24.179688 L 241.609375 -0.0195312 L 258.96875 71.609375 L 159.121094 95.808594 Z M 141.761719 24.179688 " clip-rule="nonzero"/></clipPath></defs><g clip-path="url(#f09ebc3dc6)"><g clip-path="url(#44b34ca73f)"><g clip-path="url(#48b7dad08c)"><path fill="#c6c6c6" d="M 39.878906 78.746094 L 19.109375 62.625 L 54.75 16.703125 L 75.519531 32.820312 Z M 39.878906 78.746094 " fill-opacity="1" fill-rule="nonzero"/></g></g></g><g clip-path="url(#0b0b601f93)"><g clip-path="url(#6ab4c85200)"><g clip-path="url(#f97690dc59)"><path fill="#c6c6c6" d="M 78.0625 78.21875 L 57.292969 62.101562 L 92.554688 16.664062 L 113.324219 32.785156 Z M 78.0625 78.21875 " fill-opacity="1" fill-rule="nonzero"/></g></g></g><g clip-path="url(#6c527ea9f9)"><g clip-path="url(#abc0be3bcc)"><g clip-path="url(#b442c200a9)"><path fill="#5e17eb" d="M 0.859375 31.328125 L 22.328125 16.148438 L 55.828125 63.527344 L 34.363281 78.707031 Z M 0.859375 31.328125 " fill-opacity="1" fill-rule="nonzero"/></g></g></g><g clip-path="url(#c790c5d511)"><g clip-path="url(#e804b8c614)"><g clip-path="url(#0f7fe899ea)"><path fill="#5e17eb" d="M 39.957031 31.328125 L 61.425781 16.148438 L 94.925781 63.527344 L 73.457031 78.707031 Z M 39.957031 31.328125 " fill-opacity="1" fill-rule="nonzero"/></g></g></g><g clip-path="url(#16c98cc5d8)"><g clip-path="url(#e1eb9cae0b)"><path fill="#5e17eb" d="M 82.148438 21.839844 L 107.753906 21.839844 L 107.753906 47.445312 L 82.148438 47.445312 Z M 82.148438 21.839844 " fill-opacity="1" fill-rule="nonzero"/></g></g><g clip-path="url(#a1068c3831)"><g clip-path="url(#d82097845c)"><g clip-path="url(#d4100033cb)"><path fill="#5e17eb" d="M 247.601562 33.851562 C 247.972656 35.265625 248.757812 36.109375 249.402344 36.582031 C 248.429688 37.894531 247.457031 39.203125 246.472656 40.503906 C 245.40625 39.703125 243.671875 37.996094 242.910156 35.121094 C 241.109375 37.53125 239.289062 39.925781 237.441406 42.304688 C 235.335938 45.015625 233.203125 47.710938 231.035156 50.378906 C 228.867188 53.046875 226.664062 55.691406 224.421875 58.300781 C 222.179688 60.914062 219.894531 63.496094 217.554688 66.035156 C 215.210938 68.570312 212.816406 71.066406 210.335938 73.492188 C 207.855469 75.917969 205.289062 78.277344 202.574219 80.507812 C 199.851562 82.730469 196.996094 84.855469 193.75 86.597656 C 192.121094 87.457031 190.382812 88.226562 188.417969 88.707031 C 187.433594 88.933594 186.390625 89.085938 185.28125 89.074219 C 184.730469 89.066406 184.160156 89.007812 183.589844 88.90625 C 183.019531 88.792969 182.445312 88.625 181.890625 88.402344 C 181.339844 88.167969 180.808594 87.878906 180.316406 87.542969 C 179.867188 87.199219 179.414062 86.882812 179.019531 86.464844 C 178.597656 86.085938 178.25 85.628906 177.894531 85.183594 C 177.738281 84.945312 177.585938 84.707031 177.433594 84.46875 C 177.351562 84.347656 177.285156 84.226562 177.226562 84.097656 L 177.035156 83.722656 C 176.550781 82.71875 176.222656 81.660156 176.0625 80.636719 L 175.992188 80.25 L 175.949219 79.871094 C 175.925781 79.617188 175.894531 79.363281 175.875 79.109375 C 175.859375 78.613281 175.824219 78.109375 175.847656 77.625 C 175.890625 75.671875 176.191406 73.824219 176.609375 72.050781 C 177.023438 70.273438 177.550781 68.5625 178.128906 66.890625 C 179.289062 63.542969 180.660156 60.34375 182.085938 57.191406 C 183.511719 54.042969 185.003906 50.949219 186.480469 47.867188 C 187.953125 44.785156 189.417969 41.722656 190.777344 38.640625 C 192.132812 35.5625 193.40625 32.460938 194.324219 29.359375 C 194.777344 27.8125 195.136719 26.261719 195.308594 24.773438 L 195.355469 24.222656 L 195.378906 23.949219 L 195.382812 23.679688 C 195.386719 23.503906 195.394531 23.324219 195.394531 23.148438 L 195.371094 22.636719 C 195.320312 21.96875 195.210938 21.347656 195.019531 20.816406 C 194.816406 20.296875 194.550781 19.875 194.199219 19.511719 C 194.109375 19.425781 194.035156 19.324219 193.921875 19.253906 L 193.765625 19.132812 C 193.714844 19.089844 193.671875 19.046875 193.601562 19.007812 C 193.472656 18.929688 193.34375 18.847656 193.21875 18.765625 L 192.816406 18.5625 C 192.269531 18.3125 191.679688 18.136719 191.046875 18.039062 C 190.414062 17.9375 189.730469 17.941406 189.035156 17.992188 C 187.636719 18.097656 186.160156 18.492188 184.707031 19.019531 C 183.246094 19.5625 181.800781 20.25 180.378906 21.019531 C 177.535156 22.578125 174.796875 24.460938 172.152344 26.480469 C 169.503906 28.503906 166.941406 30.675781 164.449219 32.933594 C 161.957031 35.195312 159.527344 37.539062 157.164062 39.945312 C 155.980469 41.152344 154.8125 42.371094 153.660156 43.605469 C 153.085938 44.222656 152.515625 44.84375 151.949219 45.464844 C 151.386719 46.085938 150.816406 46.726562 150.289062 47.335938 L 146.605469 44.167969 C 147.195312 43.484375 147.765625 42.851562 148.351562 42.207031 C 148.933594 41.5625 149.519531 40.925781 150.109375 40.292969 C 151.289062 39.027344 152.488281 37.777344 153.699219 36.542969 C 156.125 34.074219 158.617188 31.667969 161.1875 29.332031 C 163.761719 27.003906 166.417969 24.746094 169.203125 22.621094 C 171.992188 20.496094 174.898438 18.484375 178.054688 16.757812 C 179.636719 15.898438 181.28125 15.109375 183.027344 14.460938 C 184.78125 13.828125 186.636719 13.308594 188.652344 13.148438 C 189.65625 13.078125 190.695312 13.070312 191.753906 13.234375 C 192.8125 13.394531 193.875 13.699219 194.878906 14.167969 C 195.128906 14.289062 195.375 14.414062 195.621094 14.546875 L 196.324219 14.984375 C 196.4375 15.054688 196.558594 15.152344 196.675781 15.242188 L 197.023438 15.515625 C 197.261719 15.691406 197.46875 15.910156 197.679688 16.125 C 198.523438 16.988281 199.167969 18.046875 199.574219 19.128906 C 199.964844 20.210938 200.140625 21.285156 200.21875 22.320312 L 200.25 23.085938 C 200.25 23.339844 200.242188 23.585938 200.238281 23.835938 L 200.226562 24.210938 L 200.199219 24.574219 L 200.136719 25.300781 C 199.914062 27.210938 199.488281 29 198.980469 30.730469 C 197.957031 34.1875 196.617188 37.421875 195.222656 40.601562 C 193.820312 43.773438 192.335938 46.878906 190.859375 49.964844 C 189.382812 53.050781 187.90625 56.117188 186.511719 59.195312 C 185.117188 62.273438 183.800781 65.363281 182.71875 68.476562 C 182.179688 70.035156 181.703125 71.597656 181.339844 73.152344 C 180.972656 74.703125 180.734375 76.25 180.703125 77.714844 C 180.683594 78.085938 180.714844 78.433594 180.722656 78.792969 C 180.734375 78.964844 180.757812 79.132812 180.773438 79.308594 L 180.800781 79.5625 L 180.84375 79.808594 C 180.945312 80.472656 181.148438 81.0625 181.402344 81.59375 L 181.5 81.792969 C 181.527344 81.859375 181.5625 81.925781 181.605469 81.980469 C 181.683594 82.101562 181.761719 82.21875 181.835938 82.34375 C 182.019531 82.558594 182.179688 82.792969 182.402344 82.980469 C 182.589844 83.195312 182.851562 83.359375 183.074219 83.546875 C 183.289062 83.691406 183.511719 83.808594 183.746094 83.910156 C 183.984375 84.003906 184.234375 84.078125 184.5 84.132812 C 184.773438 84.179688 185.054688 84.214844 185.355469 84.214844 C 185.960938 84.226562 186.621094 84.136719 187.296875 83.980469 C 188.664062 83.652344 190.085938 83.042969 191.472656 82.308594 C 194.253906 80.820312 196.929688 78.855469 199.492188 76.753906 C 202.0625 74.644531 204.535156 72.371094 206.941406 70.019531 C 209.347656 67.667969 211.6875 65.226562 213.984375 62.742188 C 216.277344 60.253906 218.527344 57.714844 220.738281 55.136719 C 222.945312 52.5625 225.121094 49.953125 227.265625 47.316406 C 229.40625 44.675781 231.519531 42.011719 233.605469 39.324219 C 235.433594 36.972656 237.238281 34.601562 239.019531 32.214844 C 236.058594 32.285156 233.949219 31.0625 232.882812 30.257812 C 233.832031 29 234.773438 27.738281 235.707031 26.472656 C 236.351562 26.949219 237.382812 27.457031 238.832031 27.410156 C 240.277344 27.363281 242.15625 26.75 244.421875 24.984375 L 248.234375 27.671875 C 247.261719 30.460938 247.226562 32.429688 247.601562 33.851562 Z M 247.601562 33.851562 " fill-opacity="1" fill-rule="nonzero"/></g></g></g><g fill="#000000" fill-opacity="1"><g transform="translate(106.841211, 72.192594)"><g><path d="M 8.140625 -23.3125 L 2.265625 -26.171875 C 2.316406 -26.347656 2.394531 -26.601562 2.5 -26.9375 C 2.601562 -27.269531 2.921875 -27.84375 3.453125 -28.65625 C 3.984375 -29.476562 4.601562 -30.207031 5.3125 -30.84375 C 6.03125 -31.476562 7.078125 -32.050781 8.453125 -32.5625 C 9.828125 -33.082031 11.378906 -33.34375 13.109375 -33.34375 C 16.222656 -33.34375 18.789062 -32.445312 20.8125 -30.65625 C 22.84375 -28.875 23.859375 -26.597656 23.859375 -23.828125 C 23.859375 -21.234375 22.894531 -19.179688 20.96875 -17.671875 C 23.738281 -15.972656 25.125 -13.46875 25.125 -10.15625 C 25.125 -7.039062 23.976562 -4.46875 21.6875 -2.4375 C 19.40625 -0.414062 16.503906 0.59375 12.984375 0.59375 C 11.097656 0.59375 9.390625 0.316406 7.859375 -0.234375 C 6.328125 -0.796875 5.128906 -1.46875 4.265625 -2.25 C 3.410156 -3.03125 2.695312 -3.816406 2.125 -4.609375 C 1.550781 -5.398438 1.160156 -6.070312 0.953125 -6.625 L 0.671875 -7.46875 L 7.578125 -10.84375 C 7.578125 -10.707031 7.597656 -10.523438 7.640625 -10.296875 C 7.679688 -10.078125 7.820312 -9.675781 8.0625 -9.09375 C 8.300781 -8.507812 8.59375 -8 8.9375 -7.5625 C 9.28125 -7.125 9.800781 -6.726562 10.5 -6.375 C 11.195312 -6.019531 12.007812 -5.84375 12.9375 -5.84375 C 14.34375 -5.84375 15.484375 -6.222656 16.359375 -6.984375 C 17.234375 -7.753906 17.671875 -8.8125 17.671875 -10.15625 C 17.671875 -11.5625 17.210938 -12.710938 16.296875 -13.609375 C 15.378906 -14.515625 14.257812 -14.96875 12.9375 -14.96875 L 11.515625 -14.734375 L 11.515625 -19.609375 L 13.140625 -19.609375 C 14.171875 -19.609375 15.082031 -20.003906 15.875 -20.796875 C 16.675781 -21.597656 17.078125 -22.582031 17.078125 -23.75 C 17.078125 -24.78125 16.671875 -25.640625 15.859375 -26.328125 C 15.054688 -27.015625 14.109375 -27.359375 13.015625 -27.359375 C 12.253906 -27.359375 11.5625 -27.21875 10.9375 -26.9375 C 10.3125 -26.65625 9.832031 -26.316406 9.5 -25.921875 C 9.175781 -25.523438 8.898438 -25.128906 8.671875 -24.734375 C 8.453125 -24.335938 8.316406 -24.007812 8.265625 -23.75 Z M 8.140625 -23.3125 "/></g></g></g><g fill="#000000" fill-opacity="1"><g transform="translate(131.615063, 72.192594)"><g><path d="M 8.140625 -23.3125 L 2.265625 -26.171875 C 2.316406 -26.347656 2.394531 -26.601562 2.5 -26.9375 C 2.601562 -27.269531 2.921875 -27.84375 3.453125 -28.65625 C 3.984375 -29.476562 4.601562 -30.207031 5.3125 -30.84375 C 6.03125 -31.476562 7.078125 -32.050781 8.453125 -32.5625 C 9.828125 -33.082031 11.378906 -33.34375 13.109375 -33.34375 C 16.222656 -33.34375 18.789062 -32.445312 20.8125 -30.65625 C 22.84375 -28.875 23.859375 -26.597656 23.859375 -23.828125 C 23.859375 -21.234375 22.894531 -19.179688 20.96875 -17.671875 C 23.738281 -15.972656 25.125 -13.46875 25.125 -10.15625 C 25.125 -7.039062 23.976562 -4.46875 21.6875 -2.4375 C 19.40625 -0.414062 16.503906 0.59375 12.984375 0.59375 C 11.097656 0.59375 9.390625 0.316406 7.859375 -0.234375 C 6.328125 -0.796875 5.128906 -1.46875 4.265625 -2.25 C 3.410156 -3.03125 2.695312 -3.816406 2.125 -4.609375 C 1.550781 -5.398438 1.160156 -6.070312 0.953125 -6.625 L 0.671875 -7.46875 L 7.578125 -10.84375 C 7.578125 -10.707031 7.597656 -10.523438 7.640625 -10.296875 C 7.679688 -10.078125 7.820312 -9.675781 8.0625 -9.09375 C 8.300781 -8.507812 8.59375 -8 8.9375 -7.5625 C 9.28125 -7.125 9.800781 -6.726562 10.5 -6.375 C 11.195312 -6.019531 12.007812 -5.84375 12.9375 -5.84375 C 14.34375 -5.84375 15.484375 -6.222656 16.359375 -6.984375 C 17.234375 -7.753906 17.671875 -8.8125 17.671875 -10.15625 C 17.671875 -11.5625 17.210938 -12.710938 16.296875 -13.609375 C 15.378906 -14.515625 14.257812 -14.96875 12.9375 -14.96875 L 11.515625 -14.734375 L 11.515625 -19.609375 L 13.140625 -19.609375 C 14.171875 -19.609375 15.082031 -20.003906 15.875 -20.796875 C 16.675781 -21.597656 17.078125 -22.582031 17.078125 -23.75 C 17.078125 -24.78125 16.671875 -25.640625 15.859375 -26.328125 C 15.054688 -27.015625 14.109375 -27.359375 13.015625 -27.359375 C 12.253906 -27.359375 11.5625 -27.21875 10.9375 -26.9375 C 10.3125 -26.65625 9.832031 -26.316406 9.5 -25.921875 C 9.175781 -25.523438 8.898438 -25.128906 8.671875 -24.734375 C 8.453125 -24.335938 8.316406 -24.007812 8.265625 -23.75 Z M 8.140625 -23.3125 "/></g></g></g><g fill="#000000" fill-opacity="1"><g transform="translate(156.388915, 72.192594)"><g><path d="M 8.140625 -23.3125 L 2.265625 -26.171875 C 2.316406 -26.347656 2.394531 -26.601562 2.5 -26.9375 C 2.601562 -27.269531 2.921875 -27.84375 3.453125 -28.65625 C 3.984375 -29.476562 4.601562 -30.207031 5.3125 -30.84375 C 6.03125 -31.476562 7.078125 -32.050781 8.453125 -32.5625 C 9.828125 -33.082031 11.378906 -33.34375 13.109375 -33.34375 C 16.222656 -33.34375 18.789062 -32.445312 20.8125 -30.65625 C 22.84375 -28.875 23.859375 -26.597656 23.859375 -23.828125 C 23.859375 -21.234375 22.894531 -19.179688 20.96875 -17.671875 C 23.738281 -15.972656 25.125 -13.46875 25.125 -10.15625 C 25.125 -7.039062 23.976562 -4.46875 21.6875 -2.4375 C 19.40625 -0.414062 16.503906 0.59375 12.984375 0.59375 C 11.097656 0.59375 9.390625 0.316406 7.859375 -0.234375 C 6.328125 -0.796875 5.128906 -1.46875 4.265625 -2.25 C 3.410156 -3.03125 2.695312 -3.816406 2.125 -4.609375 C 1.550781 -5.398438 1.160156 -6.070312 0.953125 -6.625 L 0.671875 -7.46875 L 7.578125 -10.84375 C 7.578125 -10.707031 7.597656 -10.523438 7.640625 -10.296875 C 7.679688 -10.078125 7.820312 -9.675781 8.0625 -9.09375 C 8.300781 -8.507812 8.59375 -8 8.9375 -7.5625 C 9.28125 -7.125 9.800781 -6.726562 10.5 -6.375 C 11.195312 -6.019531 12.007812 -5.84375 12.9375 -5.84375 C 14.34375 -5.84375 15.484375 -6.222656 16.359375 -6.984375 C 17.234375 -7.753906 17.671875 -8.8125 17.671875 -10.15625 C 17.671875 -11.5625 17.210938 -12.710938 16.296875 -13.609375 C 15.378906 -14.515625 14.257812 -14.96875 12.9375 -14.96875 L 11.515625 -14.734375 L 11.515625 -19.609375 L 13.140625 -19.609375 C 14.171875 -19.609375 15.082031 -20.003906 15.875 -20.796875 C 16.675781 -21.597656 17.078125 -22.582031 17.078125 -23.75 C 17.078125 -24.78125 16.671875 -25.640625 15.859375 -26.328125 C 15.054688 -27.015625 14.109375 -27.359375 13.015625 -27.359375 C 12.253906 -27.359375 11.5625 -27.21875 10.9375 -26.9375 C 10.3125 -26.65625 9.832031 -26.316406 9.5 -25.921875 C 9.175781 -25.523438 8.898438 -25.128906 8.671875 -24.734375 C 8.453125 -24.335938 8.316406 -24.007812 8.265625 -23.75 Z M 8.140625 -23.3125 "/></g></g></g><g fill="#000000" fill-opacity="1"><g transform="translate(181.162765, 72.192594)"><g><path d="M 22.078125 -20.375 L 11.984375 -5.359375 L 21.28125 -5.359375 L 21.28125 0 L 0.203125 0 L 10.28125 -15 L 1.859375 -15 L 1.859375 -20.375 Z M 22.078125 -20.375 "/></g></g></g><g fill="#000000" fill-opacity="1"><g transform="translate(201.807611, 72.192594)"><g><path d="M 3.765625 -2.515625 C 1.859375 -4.597656 0.90625 -7.144531 0.90625 -10.15625 C 0.90625 -13.175781 1.859375 -15.734375 3.765625 -17.828125 C 5.671875 -19.921875 8.09375 -20.96875 11.03125 -20.96875 C 13.738281 -20.96875 15.960938 -20.117188 17.703125 -18.421875 L 17.703125 -20.375 L 24.734375 -20.375 L 24.734375 0 L 17.78125 0 L 17.78125 -2.296875 L 17.703125 -2.296875 C 15.960938 -0.367188 13.738281 0.59375 11.03125 0.59375 C 8.09375 0.59375 5.671875 -0.441406 3.765625 -2.515625 Z M 9.734375 -13.609375 C 8.828125 -12.710938 8.375 -11.5625 8.375 -10.15625 C 8.375 -8.757812 8.8125 -7.617188 9.6875 -6.734375 C 10.5625 -5.847656 11.710938 -5.40625 13.140625 -5.40625 C 14.515625 -5.40625 15.644531 -5.851562 16.53125 -6.75 C 17.414062 -7.644531 17.859375 -8.78125 17.859375 -10.15625 C 17.859375 -11.5625 17.398438 -12.710938 16.484375 -13.609375 C 15.578125 -14.515625 14.460938 -14.96875 13.140625 -14.96875 C 11.785156 -14.96875 10.648438 -14.515625 9.734375 -13.609375 Z M 9.734375 -13.609375 "/></g></g></g><g fill="#000000" fill-opacity="1"><g transform="translate(227.296097, 72.192594)"><g><path d="M 2.375 0 L 2.375 -20.375 L 9.40625 -20.375 L 9.40625 -17.421875 L 9.484375 -17.421875 C 9.535156 -17.535156 9.617188 -17.671875 9.734375 -17.828125 C 9.859375 -17.984375 10.117188 -18.257812 10.515625 -18.65625 C 10.910156 -19.050781 11.332031 -19.40625 11.78125 -19.71875 C 12.238281 -20.039062 12.820312 -20.328125 13.53125 -20.578125 C 14.25 -20.835938 14.976562 -20.96875 15.71875 -20.96875 C 16.488281 -20.96875 17.242188 -20.859375 17.984375 -20.640625 C 18.722656 -20.429688 19.265625 -20.222656 19.609375 -20.015625 L 20.171875 -19.6875 L 17.234375 -13.734375 C 16.359375 -14.472656 15.140625 -14.84375 13.578125 -14.84375 C 12.734375 -14.84375 12.003906 -14.65625 11.390625 -14.28125 C 10.785156 -13.914062 10.359375 -13.46875 10.109375 -12.9375 C 9.859375 -12.414062 9.675781 -11.96875 9.5625 -11.59375 C 9.457031 -11.21875 9.40625 -10.925781 9.40625 -10.71875 L 9.40625 0 Z M 2.375 0 "/></g></g></g><g fill="#000000" fill-opacity="1"><g transform="translate(245.439722, 72.192594)"><g><path d="M 3.765625 -2.515625 C 1.859375 -4.597656 0.90625 -7.144531 0.90625 -10.15625 C 0.90625 -13.175781 1.859375 -15.734375 3.765625 -17.828125 C 5.671875 -19.921875 8.09375 -20.96875 11.03125 -20.96875 C 13.738281 -20.96875 15.960938 -20.117188 17.703125 -18.421875 L 17.703125 -34.140625 L 24.734375 -34.140625 L 24.734375 0 L 17.78125 0 L 17.78125 -2.296875 L 17.703125 -2.296875 C 15.960938 -0.367188 13.738281 0.59375 11.03125 0.59375 C 8.09375 0.59375 5.671875 -0.441406 3.765625 -2.515625 Z M 9.734375 -13.609375 C 8.828125 -12.710938 8.375 -11.5625 8.375 -10.15625 C 8.375 -8.757812 8.8125 -7.617188 9.6875 -6.734375 C 10.5625 -5.847656 11.710938 -5.40625 13.140625 -5.40625 C 14.515625 -5.40625 15.644531 -5.851562 16.53125 -6.75 C 17.414062 -7.644531 17.859375 -8.78125 17.859375 -10.15625 C 17.859375 -11.5625 17.398438 -12.710938 16.484375 -13.609375 C 15.578125 -14.515625 14.460938 -14.96875 13.140625 -14.96875 C 11.785156 -14.96875 10.648438 -14.515625 9.734375 -13.609375 Z M 9.734375 -13.609375 "/></g></g></g><g fill="#000000" fill-opacity="1"><g transform="translate(270.928208, 72.192594)"><g><path d="M 6.90625 -8.5 C 8.175781 -8.5 9.253906 -8.054688 10.140625 -7.171875 C 11.023438 -6.285156 11.46875 -5.207031 11.46875 -3.9375 C 11.46875 -2.6875 11.023438 -1.617188 10.140625 -0.734375 C 9.253906 0.148438 8.175781 0.59375 6.90625 0.59375 C 5.664062 0.59375 4.597656 0.148438 3.703125 -0.734375 C 2.816406 -1.617188 2.375 -2.6875 2.375 -3.9375 C 2.375 -5.207031 2.816406 -6.285156 3.703125 -7.171875 C 4.597656 -8.054688 5.664062 -8.5 6.90625 -8.5 Z M 6.90625 -8.5 "/></g></g></g></svg>