<svg xmlns="http://www.w3.org/2000/svg" xmlns:xlink="http://www.w3.org/1999/xlink" width="41" zoomAndPan="magnify" viewBox="0 0 30.75 17.999999" height="24" preserveAspectRatio="xMidYMid meet" version="1.0"><defs><clipPath id="4e2dee2575"><path d="M 1 1 L 14 1 L 14 17 L 1 17 Z M 1 1 " clip-rule="nonzero"/></clipPath><clipPath id="8e84cbf4a8"><path d="M 0 4.292969 L 5.972656 0.0742188 L 15.308594 13.277344 L 9.335938 17.496094 Z M 0 4.292969 " clip-rule="nonzero"/></clipPath><clipPath id="239a43e56f"><path d="M 2.984375 2.183594 C 3.777344 1.625 4.757812 1.402344 5.714844 1.566406 C 6.671875 1.730469 7.523438 2.265625 8.082031 3.058594 L 13.1875 10.277344 C 13.746094 11.070312 13.96875 12.050781 13.804688 13.007812 C 13.640625 13.960938 13.105469 14.8125 12.3125 15.375 C 11.519531 15.933594 10.539062 16.15625 9.582031 15.992188 C 8.625 15.828125 7.773438 15.292969 7.214844 14.5 L 2.109375 7.28125 C 1.550781 6.488281 1.328125 5.507812 1.492188 4.550781 C 1.65625 3.59375 2.195312 2.742188 2.984375 2.183594 Z M 2.984375 2.183594 " clip-rule="nonzero"/></clipPath><clipPath id="c959c342f5"><path d="M 12 1 L 25 1 L 25 17 L 12 17 Z M 12 1 " clip-rule="nonzero"/></clipPath><clipPath id="9969624d6a"><path d="M 10.875 4.292969 L 16.847656 0.0742188 L 26.183594 13.277344 L 20.210938 17.496094 Z M 10.875 4.292969 " clip-rule="nonzero"/></clipPath><clipPath id="2877f7de75"><path d="M 13.863281 2.183594 C 14.652344 1.625 15.636719 1.402344 16.589844 1.566406 C 17.546875 1.730469 18.398438 2.265625 18.957031 3.058594 L 24.0625 10.277344 C 24.621094 11.070312 24.84375 12.050781 24.679688 13.007812 C 24.515625 13.960938 23.980469 14.8125 23.1875 15.375 C 22.394531 15.933594 21.414062 16.15625 20.457031 15.992188 C 19.503906 15.828125 18.652344 15.292969 18.089844 14.5 L 12.988281 7.28125 C 12.425781 6.488281 12.203125 5.507812 12.367188 4.550781 C 12.53125 3.59375 13.070312 2.742188 13.863281 2.183594 Z M 13.863281 2.183594 " clip-rule="nonzero"/></clipPath><clipPath id="96f5c8dcda"><path d="M 22.957031 1.375 L 30.039062 1.375 L 30.039062 8.457031 L 22.957031 8.457031 Z M 22.957031 1.375 " clip-rule="nonzero"/></clipPath><clipPath id="cd2be78176"><path d="M 26.496094 1.375 C 24.542969 1.375 22.957031 2.960938 22.957031 4.914062 C 22.957031 6.871094 24.542969 8.457031 26.496094 8.457031 C 28.453125 8.457031 30.039062 6.871094 30.039062 4.914062 C 30.039062 2.960938 28.453125 1.375 26.496094 1.375 Z M 26.496094 1.375 " clip-rule="nonzero"/></clipPath></defs><g clip-path="url(#4e2dee2575)"><g clip-path="url(#8e84cbf4a8)"><g clip-path="url(#239a43e56f)"><path fill="#ffffff" d="M 0 4.292969 L 5.972656 0.0742188 L 15.289062 13.253906 L 9.320312 17.476562 Z M 0 4.292969 " fill-opacity="1" fill-rule="nonzero"/></g></g></g><g clip-path="url(#c959c342f5)"><g clip-path="url(#9969624d6a)"><g clip-path="url(#2877f7de75)"><path fill="#ffffff" d="M 10.875 4.292969 L 16.847656 0.0742188 L 26.167969 13.253906 L 20.195312 17.476562 Z M 10.875 4.292969 " fill-opacity="1" fill-rule="nonzero"/></g></g></g><g clip-path="url(#96f5c8dcda)"><g clip-path="url(#cd2be78176)"><path fill="#ffffff" d="M 22.957031 1.375 L 30.039062 1.375 L 30.039062 8.457031 L 22.957031 8.457031 Z M 22.957031 1.375 " fill-opacity="1" fill-rule="nonzero"/></g></g></svg>